<?xml version="1.0" encoding="UTF-8" standalone="no"?>
<!DOCTYPE svg PUBLIC "-//W3C//DTD SVG 1.1//EN" "http://www.w3.org/Graphics/SVG/1.1/DTD/svg11.dtd">
<svg xmlns="http://www.w3.org/2000/svg" version="1.1" viewBox="0 0 1024 1024" width="1024.0pt" height="1024.0pt">
<path d="M 0.00 0.00 L 497.45 0.00 C 478.71 0.69 459.97 2.38 441.39 4.90 C 375.42 14.06 311.35 36.31 253.83 69.86 C 213.96 93.23 177.18 121.82 145.00 155.00 C 98.88 202.38 62.03 258.86 37.31 320.19 C 22.08 358.00 11.18 397.69 5.40 438.04 C 2.92 453.27 1.90 468.86 0.58 484.00 C 0.28 490.00 0.19 496.01 0.00 502.01 L 0.00 0.00 Z" fill="none" fill-opacity="0" />
<path d="M 497.45 0.00 L 529.61 0.00 L 531.31 0.11 C 553.68 1.42 575.86 3.42 597.95 7.29 C 677.73 20.77 754.08 53.59 818.82 102.13 C 859.13 132.28 895.07 168.48 924.78 209.14 C 974.58 276.80 1007.16 356.89 1018.90 440.08 C 1021.56 458.77 1023.14 477.66 1024.00 496.51 L 1024.00 525.89 C 1022.11 580.53 1012.16 634.81 993.40 686.21 C 970.14 750.79 933.57 810.56 886.80 860.80 C 846.44 904.20 798.47 940.48 745.73 967.52 C 684.36 999.06 616.58 1017.95 547.75 1022.72 C 542.52 1023.29 537.26 1023.54 532.02 1024.00 L 497.17 1024.00 C 479.31 1023.35 461.52 1021.64 443.80 1019.34 C 381.42 1011.17 320.56 990.92 265.41 960.69 C 221.04 936.28 180.29 905.32 145.00 869.00 C 86.56 809.01 43.27 734.53 20.12 654.04 C 10.08 619.41 3.77 583.71 1.27 547.75 C 0.30 540.06 0.37 532.37 0.00 524.64 L 0.00 502.01 C 0.19 496.01 0.28 490.00 0.58 484.00 C 1.90 468.86 2.92 453.27 5.40 438.04 C 11.18 397.69 22.08 358.00 37.31 320.19 C 62.03 258.86 98.88 202.38 145.00 155.00 C 177.18 121.82 213.96 93.23 253.83 69.86 C 311.35 36.31 375.42 14.06 441.39 4.90 C 459.97 2.38 478.71 0.69 497.45 0.00 Z" fill="#f4ac36" />
<path d="M 529.61 0.00 L 1024.00 0.00 L 1024.00 496.51 C 1023.14 477.66 1021.56 458.77 1018.90 440.08 C 1007.16 356.89 974.58 276.80 924.78 209.14 C 895.07 168.48 859.13 132.28 818.82 102.13 C 754.08 53.59 677.73 20.77 597.95 7.29 C 575.86 3.42 553.68 1.42 531.31 0.11 L 529.61 0.00 Z" fill="none" fill-opacity="0" />
<path d="M 282.00 227.35 C 359.00 227.37 436.00 227.35 513.00 227.36 C 522.03 227.36 531.01 228.08 539.98 229.14 C 570.37 232.29 600.27 239.60 628.51 251.31 C 665.04 266.21 698.71 288.45 726.04 316.97 C 749.53 342.26 768.90 370.54 781.14 402.97 C 782.16 405.55 783.16 408.82 785.50 410.50 C 787.21 411.90 789.91 411.69 792.00 411.78 C 810.00 411.64 828.00 411.79 846.00 411.69 C 849.27 411.67 852.52 411.99 855.76 412.38 C 856.98 418.63 856.49 424.70 856.55 431.00 C 856.58 443.67 856.53 456.33 856.59 469.00 C 856.48 471.11 856.71 473.78 855.67 475.66 C 854.27 477.77 851.24 477.61 849.02 477.71 C 835.68 477.65 822.34 477.73 809.00 477.64 C 806.07 477.62 803.18 477.96 800.28 478.37 C 800.13 486.27 800.52 494.14 801.24 502.00 C 801.48 509.25 801.50 516.76 801.23 524.01 C 800.56 531.83 800.04 539.65 800.37 547.50 C 807.64 548.81 814.66 548.13 822.00 548.27 C 833.87 548.37 845.76 548.07 857.62 548.45 C 857.37 552.67 856.61 556.77 856.62 561.00 C 856.55 576.01 856.54 591.01 856.57 606.02 C 856.47 607.99 856.64 610.63 855.21 612.19 C 853.66 613.89 851.11 613.61 849.02 613.74 C 830.68 613.63 812.34 613.77 794.00 613.66 C 791.12 613.70 787.91 613.39 785.14 614.25 C 782.30 615.25 781.02 618.46 779.95 621.01 C 766.47 655.79 745.21 687.49 718.13 713.14 C 705.90 724.82 692.39 735.85 678.52 745.51 C 663.99 754.03 649.07 763.16 633.49 769.50 C 612.76 778.23 591.25 785.00 569.21 789.55 C 544.48 794.40 519.20 796.66 494.00 796.46 C 418.80 796.45 343.59 796.42 268.39 796.47 C 268.15 741.66 268.36 686.81 268.28 632.00 C 268.23 626.10 268.72 620.39 267.53 614.55 C 243.36 614.19 219.17 614.48 195.00 614.41 C 192.79 614.34 190.65 613.98 188.48 613.60 C 188.04 591.90 188.35 570.17 188.31 548.46 C 210.87 548.49 233.44 548.45 256.00 548.48 C 259.31 548.45 262.78 548.72 266.04 548.11 C 267.11 547.82 267.71 547.12 267.82 546.00 C 268.60 542.47 268.25 538.61 268.30 535.00 C 268.28 518.67 268.26 502.33 268.32 486.00 C 268.30 483.45 267.96 480.94 267.59 478.43 C 243.74 477.96 219.86 478.36 196.00 478.23 C 193.49 478.14 191.05 477.76 188.57 477.39 C 187.99 467.95 188.39 458.46 188.27 449.00 C 188.42 436.86 187.95 424.67 188.55 412.54 C 195.72 412.06 202.83 412.30 210.00 412.26 C 226.33 412.26 242.67 412.22 259.00 412.29 C 261.86 412.27 264.67 411.92 267.49 411.54 C 268.43 406.38 268.39 401.22 268.29 396.00 C 268.28 342.00 268.29 288.00 268.28 234.00 C 268.30 232.12 268.36 230.26 268.50 228.39 C 272.85 226.85 277.41 227.41 282.00 227.35 Z" fill="#fffffe" />
<path d="M 337.98 288.21 C 396.65 288.23 455.33 288.20 514.00 288.22 C 560.74 287.78 606.82 303.29 644.75 330.38 C 651.88 335.43 658.60 341.04 665.36 346.65 C 670.17 350.62 673.67 355.59 678.00 360.00 C 686.31 368.60 693.30 378.15 699.72 388.21 C 704.60 395.93 709.49 403.22 711.44 412.31 C 709.71 412.95 707.88 413.56 706.04 413.69 C 586.36 413.69 466.68 413.69 347.00 413.69 C 341.98 413.62 337.41 414.27 332.57 412.53 C 332.27 373.69 332.58 334.84 332.41 296.00 C 332.51 293.96 332.24 291.18 333.51 289.45 C 334.35 288.01 336.55 288.39 337.98 288.21 Z" fill="#f4ac36" />
<path d="M 338.99 477.69 C 467.66 477.69 596.34 477.68 725.01 477.69 C 727.40 477.65 729.36 478.65 731.47 479.62 C 731.96 485.75 732.61 491.83 732.58 497.98 C 732.50 503.37 733.50 508.66 733.10 514.01 C 732.22 523.90 733.09 534.94 731.47 545.00 C 731.22 546.64 730.58 547.48 728.91 547.88 C 725.06 548.65 720.92 548.20 717.00 548.28 C 593.33 548.27 469.67 548.28 346.00 548.27 C 342.40 548.23 338.60 548.57 335.05 547.88 C 333.50 547.64 333.00 547.08 332.69 545.58 C 332.23 542.10 332.48 538.50 332.45 535.00 C 332.45 520.00 332.47 505.00 332.44 490.00 C 332.48 486.94 332.20 483.72 332.77 480.70 C 333.66 477.95 336.54 477.82 338.99 477.69 Z" fill="#f4ac36" />
<path d="M 0.00 524.64 C 0.37 532.37 0.30 540.06 1.27 547.75 C 3.77 583.71 10.08 619.41 20.12 654.04 C 43.27 734.53 86.56 809.01 145.00 869.00 C 180.29 905.32 221.04 936.28 265.41 960.69 C 320.56 990.92 381.42 1011.17 443.80 1019.34 C 461.52 1021.64 479.31 1023.35 497.17 1024.00 L 0.00 1024.00 L 0.00 524.64 Z" fill="none" fill-opacity="0" />
<path d="M 1024.00 525.89 L 1024.00 1024.00 L 532.02 1024.00 C 537.26 1023.54 542.52 1023.29 547.75 1022.72 C 616.58 1017.95 684.36 999.06 745.73 967.52 C 798.47 940.48 846.44 904.20 886.80 860.80 C 933.57 810.56 970.14 750.79 993.40 686.21 C 1012.16 634.81 1022.11 580.53 1024.00 525.89 Z" fill="none" fill-opacity="0" />
<path d="M 707.02 614.41 C 708.84 614.68 710.41 614.25 711.33 616.18 C 711.68 618.67 710.02 621.46 708.96 623.62 C 690.11 659.16 660.73 689.02 625.48 708.40 C 623.73 709.31 621.89 710.03 620.05 710.72 C 614.78 712.61 610.19 715.79 604.99 717.90 C 582.72 727.22 559.01 733.57 534.99 736.14 C 530.63 736.49 526.32 736.93 522.01 737.71 C 513.93 739.16 506.23 738.48 498.00 738.53 C 448.33 738.51 398.67 738.53 349.00 738.52 C 343.39 738.47 338.09 739.04 332.61 737.42 C 332.22 698.95 332.61 660.46 332.41 621.98 C 332.55 619.38 332.13 616.19 335.10 615.02 C 338.60 614.26 342.43 614.66 346.00 614.59 C 460.33 614.61 574.67 614.57 689.00 614.61 C 695.00 614.66 701.04 614.09 707.02 614.41 Z" fill="#f4ac36" />
</svg>