<?xml version="1.0" encoding="UTF-8" standalone="no"?>
<!DOCTYPE svg PUBLIC "-//W3C//DTD SVG 1.1//EN" "http://www.w3.org/Graphics/SVG/1.1/DTD/svg11.dtd">
<svg xmlns="http://www.w3.org/2000/svg" version="1.1" viewBox="0 0 658 658" width="658.0pt" height="658.0pt">
<path d="M 0.00 0.00 L 326.37 0.00 C 304.73 0.65 283.23 2.52 262.03 7.06 C 209.85 17.82 160.57 41.61 119.55 75.59 C 79.35 108.85 47.17 151.66 26.66 199.65 C 12.20 233.33 3.51 269.44 0.99 306.00 C 0.79 311.16 0.48 316.27 0.00 321.41 L 0.00 0.00 Z" fill="none" fill-opacity="0" />
<path d="M 326.37 0.00 L 331.91 0.00 L 332.70 0.02 C 339.14 0.24 345.56 0.70 352.00 0.97 C 400.78 4.24 448.71 18.62 491.22 42.79 C 517.40 57.58 541.33 76.06 562.63 97.27 C 559.03 100.11 555.81 103.34 552.64 106.64 C 531.48 127.81 510.30 148.97 489.14 170.14 C 485.50 173.74 481.87 177.34 478.40 181.10 C 453.95 156.13 423.25 137.41 389.80 127.29 C 357.90 117.55 323.63 115.42 290.82 121.51 C 259.99 127.12 230.54 139.80 205.18 158.19 C 179.30 176.91 157.80 201.61 142.85 229.83 C 125.00 263.45 116.41 301.98 118.36 340.00 C 120.87 392.11 143.52 442.63 180.61 479.29 C 178.54 480.99 176.50 482.71 174.61 484.61 C 165.02 494.35 155.28 503.95 145.65 513.65 C 141.49 517.99 136.90 521.45 133.85 526.76 C 119.96 536.86 106.60 547.61 94.45 559.78 C 70.82 535.46 50.74 507.83 35.48 477.53 C 15.70 438.56 3.93 395.60 0.98 352.00 C 0.71 345.55 0.22 339.12 0.00 332.67 L 0.00 321.41 C 0.48 316.27 0.79 311.16 0.99 306.00 C 3.51 269.44 12.20 233.33 26.66 199.65 C 47.17 151.66 79.35 108.85 119.55 75.59 C 160.57 41.61 209.85 17.82 262.03 7.06 C 283.23 2.52 304.73 0.65 326.37 0.00 Z" fill="#ff6666" />
<path d="M 331.91 0.00 L 658.00 0.00 L 658.00 311.82 C 657.56 307.88 657.18 303.95 656.93 300.00 C 652.62 250.07 636.60 201.25 610.53 158.46 C 597.06 136.28 580.92 115.67 562.63 97.27 C 541.33 76.06 517.40 57.58 491.22 42.79 C 448.71 18.62 400.78 4.24 352.00 0.97 C 345.56 0.70 339.14 0.24 332.70 0.02 L 331.91 0.00 Z" fill="none" fill-opacity="0" />
<path d="M 562.63 97.27 C 580.92 115.67 597.06 136.28 610.53 158.46 C 636.60 201.25 652.62 250.07 656.93 300.00 C 657.18 303.95 657.56 307.88 658.00 311.82 L 658.00 345.78 C 657.62 349.86 657.21 353.94 656.95 358.03 C 652.95 404.57 638.86 450.18 615.82 490.82 C 603.01 513.50 587.48 534.66 569.71 553.70 C 563.23 560.63 556.36 567.15 549.53 573.72 C 522.05 543.18 488.60 518.15 451.59 500.32 C 476.99 481.85 498.23 457.83 513.18 430.19 C 531.42 396.60 540.33 358.04 538.64 319.84 C 536.52 268.17 514.62 217.97 478.40 181.10 C 481.87 177.34 485.50 173.74 489.14 170.14 C 510.30 148.97 531.48 127.81 552.64 106.64 C 555.81 103.34 559.03 100.11 562.63 97.27 Z" fill="#d95e59" />
<path d="M 389.80 127.29 C 423.25 137.41 453.95 156.13 478.40 181.10 C 514.62 217.97 536.52 268.17 538.64 319.84 C 540.33 358.04 531.42 396.60 513.18 430.19 C 498.23 457.83 476.99 481.85 451.59 500.32 C 488.60 518.15 522.05 543.18 549.53 573.72 C 530.44 591.70 508.24 606.65 485.34 619.33 C 450.67 638.02 412.68 650.44 373.63 655.64 C 367.16 656.60 360.64 656.83 354.21 658.00 L 303.72 658.00 C 297.36 656.76 290.90 656.56 284.50 655.59 C 232.07 648.55 181.39 628.38 138.33 597.67 C 126.25 589.22 115.09 579.70 104.14 569.86 C 100.77 566.68 97.59 563.18 94.45 559.78 C 106.60 547.61 119.96 536.86 133.85 526.76 C 153.22 513.33 173.84 501.89 195.66 492.94 C 190.50 488.54 185.40 484.09 180.61 479.29 C 143.52 442.63 120.87 392.11 118.36 340.00 C 116.41 301.98 125.00 263.45 142.85 229.83 C 157.80 201.61 179.30 176.91 205.18 158.19 C 230.54 139.80 259.99 127.12 290.82 121.51 C 323.63 115.42 357.90 117.55 389.80 127.29 Z" fill="#f5f7e2" />
<path d="M 308.51 149.78 C 329.69 147.41 351.32 148.88 371.98 154.10 C 402.33 161.59 430.56 177.25 453.00 199.00 C 477.44 222.53 494.97 253.05 503.04 286.00 C 509.67 312.78 509.97 341.04 504.02 367.97 C 497.24 399.04 482.18 428.21 460.59 451.58 C 446.51 466.80 429.77 479.88 411.21 489.19 C 385.07 502.90 355.52 509.99 326.00 509.42 C 292.85 509.16 259.73 498.98 231.77 481.23 C 186.50 452.71 155.95 403.26 149.89 350.18 C 145.97 317.00 151.60 282.92 165.65 252.65 C 178.54 224.83 198.70 200.50 223.60 182.62 C 248.50 164.65 277.98 153.21 308.51 149.78 Z" fill="#f7931a" />
<path d="M 321.23 211.29 C 327.84 212.47 334.32 214.50 340.86 216.02 C 338.23 226.61 335.58 237.19 332.94 247.78 C 338.21 249.02 343.49 250.26 348.76 251.51 C 351.36 240.98 354.01 230.47 356.62 219.95 C 363.22 221.55 369.80 223.21 376.37 224.88 C 373.70 235.68 370.99 246.47 368.30 257.27 C 376.52 260.33 385.49 263.65 392.40 269.16 L 392.64 269.35 L 392.91 269.52 C 399.48 273.73 404.87 280.37 407.01 287.93 C 409.14 294.85 408.38 302.65 406.36 309.51 C 404.55 315.31 401.79 320.74 396.88 324.51 L 396.67 324.68 L 396.48 324.86 C 392.61 328.56 387.89 330.18 382.88 331.69 C 387.58 334.36 392.05 337.24 395.76 341.23 C 401.87 347.48 405.07 356.61 403.65 365.29 L 403.63 365.43 L 403.63 365.71 C 403.44 373.68 400.40 381.72 396.65 388.67 C 392.20 396.82 384.98 403.18 376.09 406.05 C 362.16 410.96 345.49 408.81 331.26 406.10 C 328.31 416.98 325.77 427.97 322.96 438.89 C 316.39 437.22 309.80 435.59 303.22 433.93 C 305.99 423.20 308.54 412.42 311.39 401.71 C 306.11 400.34 300.85 398.93 295.57 397.59 C 292.84 408.39 290.15 419.19 287.47 430.00 C 280.88 428.40 274.32 426.72 267.73 425.12 C 270.42 414.22 273.16 403.32 275.88 392.42 C 274.15 391.85 272.42 391.28 270.69 390.73 L 270.37 390.63 L 270.26 390.60 C 258.80 388.21 247.51 384.96 236.11 382.29 C 239.41 374.77 242.62 367.22 245.93 359.71 C 250.61 360.87 255.25 362.31 259.99 363.22 C 262.28 363.63 264.44 363.78 266.45 362.40 C 268.63 360.89 269.34 358.45 270.00 356.03 C 276.30 330.60 282.67 305.18 289.16 279.81 L 289.59 279.64 L 289.64 279.28 L 289.29 279.36 C 289.60 278.12 289.94 276.89 290.29 275.66 L 290.38 275.37 L 290.39 275.29 C 290.93 271.64 292.25 267.93 290.58 264.39 C 289.16 261.24 286.38 259.66 283.24 258.61 C 278.25 256.98 273.05 255.96 267.95 254.73 C 269.68 247.70 271.45 240.69 273.19 233.66 C 286.49 236.83 299.68 240.44 313.01 243.51 C 315.84 232.81 318.15 221.90 321.23 211.29 Z" fill="#ffffff" />
<path d="M 392.40 269.16 L 392.91 269.52 L 392.64 269.35 L 392.40 269.16 Z" fill="#8fce8e" />
<path d="M 327.60 271.14 C 337.73 273.34 349.07 275.62 358.08 280.91 C 362.82 283.68 367.32 287.54 368.85 293.01 C 371.19 301.93 366.61 311.83 357.46 314.45 C 345.02 318.11 329.99 313.64 317.77 310.54 C 321.04 297.41 324.33 284.28 327.60 271.14 Z" fill="#f7931a" />
<path d="M 290.39 275.29 L 290.38 275.37 L 290.29 275.66 L 290.39 275.29 Z" fill="#8fce8e" />
<path d="M 289.29 279.36 L 289.64 279.28 L 289.59 279.64 L 289.16 279.81 L 289.29 279.36 Z" fill="#6ac572" />
<path d="M 396.67 324.68 L 396.88 324.51 L 396.48 324.86 L 396.67 324.68 Z" fill="#8fce8e" />
<path d="M 312.82 330.41 C 319.01 331.77 325.16 333.34 331.35 334.73 L 331.81 334.84 C 336.53 336.61 341.43 338.03 346.04 340.06 C 351.12 342.52 356.18 345.88 359.71 350.32 C 365.83 357.94 363.98 370.44 356.00 376.00 C 351.19 379.41 344.76 380.26 339.01 380.37 C 325.94 380.46 314.47 376.98 301.97 373.85 C 305.58 359.37 309.19 344.89 312.82 330.41 Z" fill="#f7931a" />
<path d="M 0.00 332.67 C 0.22 339.12 0.71 345.55 0.98 352.00 C 3.93 395.60 15.70 438.56 35.48 477.53 C 50.74 507.83 70.82 535.46 94.45 559.78 C 97.59 563.18 100.77 566.68 104.14 569.86 C 115.09 579.70 126.25 589.22 138.33 597.67 C 181.39 628.38 232.07 648.55 284.50 655.59 C 290.90 656.56 297.36 656.76 303.72 658.00 L 0.00 658.00 L 0.00 332.67 Z" fill="none" fill-opacity="0" />
<path d="M 331.26 334.36 L 331.63 334.40 L 331.81 334.84 L 331.35 334.73 L 331.26 334.36 Z" fill="#6ac572" />
<path d="M 658.00 345.78 L 658.00 658.00 L 354.21 658.00 C 360.64 656.83 367.16 656.60 373.63 655.64 C 412.68 650.44 450.67 638.02 485.34 619.33 C 508.24 606.65 530.44 591.70 549.53 573.72 C 556.36 567.15 563.23 560.63 569.71 553.70 C 587.48 534.66 603.01 513.50 615.82 490.82 C 638.86 450.18 652.95 404.57 656.95 358.03 C 657.21 353.94 657.62 349.86 658.00 345.78 Z" fill="none" fill-opacity="0" />
<path d="M 403.63 365.43 L 403.65 365.29 L 403.63 365.71 L 403.63 365.43 Z" fill="#aad6a5" />
<path d="M 270.37 390.63 L 270.69 390.73 L 270.26 390.60 L 270.37 390.63 Z" fill="#8fce8e" />
<path d="M 180.61 479.29 C 185.40 484.09 190.50 488.54 195.66 492.94 C 173.84 501.89 153.22 513.33 133.85 526.76 C 136.90 521.45 141.49 517.99 145.65 513.65 C 155.28 503.95 165.02 494.35 174.61 484.61 C 176.50 482.71 178.54 480.99 180.61 479.29 Z" fill="#d95e59" />
</svg>