<?xml version="1.0" encoding="UTF-8" standalone="no"?>
<!DOCTYPE svg PUBLIC "-//W3C//DTD SVG 1.1//EN" "http://www.w3.org/Graphics/SVG/1.1/DTD/svg11.dtd">
<svg xmlns="http://www.w3.org/2000/svg" version="1.1" viewBox="0 0 1024 1024" width="1024.0pt" height="1024.0pt">
<path d="M 0.00 0.00 L 502.05 0.00 L 501.54 0.51 C 488.94 0.46 476.58 0.91 464.08 2.34 C 442.20 4.31 419.46 8.00 398.00 12.91 C 394.67 13.49 391.27 14.21 388.08 15.34 C 354.18 23.55 321.46 35.79 289.99 50.96 C 250.22 70.34 213.65 94.30 180.00 123.05 C 115.09 178.51 64.18 250.17 33.66 329.88 C 31.47 334.44 30.48 339.53 28.33 344.01 C 26.72 348.87 24.97 354.14 23.34 359.01 C 22.69 363.16 20.63 366.84 19.92 371.01 C 17.12 380.53 14.41 390.23 12.61 399.99 C 10.59 406.50 9.62 413.40 8.36 420.09 C 3.76 446.58 0.25 473.52 0.55 500.55 L 0.00 500.55 L 0.00 0.00 Z" fill="none" fill-opacity="0" />
<path d="M 502.05 0.00 L 523.45 0.00 L 523.45 0.55 C 542.31 0.41 560.47 1.70 579.01 4.57 C 588.41 5.30 597.70 7.45 607.00 8.90 C 686.28 23.82 760.89 57.88 824.72 107.31 C 911.22 174.28 975.55 268.76 1004.99 374.00 C 1014.17 406.50 1019.94 439.96 1022.50 473.61 C 1023.44 482.48 1023.39 491.61 1023.48 500.54 L 1024.00 501.06 L 1024.00 523.46 L 1023.45 523.44 C 1023.71 544.51 1021.75 563.29 1018.94 584.00 C 1016.05 601.48 1013.32 619.39 1008.49 636.45 C 1006.03 647.39 1002.66 657.81 999.51 668.53 C 996.36 677.11 993.19 686.80 989.99 695.00 C 954.50 786.95 892.47 867.58 812.72 925.69 C 744.38 975.64 663.87 1008.45 579.99 1019.35 C 560.89 1022.19 542.89 1023.59 523.46 1023.48 L 522.94 1024.00 L 499.55 1024.00 L 499.56 1023.45 C 486.52 1023.63 473.89 1022.75 461.00 1021.37 C 423.77 1017.71 387.52 1009.90 351.93 998.29 C 347.34 997.04 343.60 994.91 339.01 993.75 C 291.94 976.68 247.37 952.61 207.25 922.70 C 155.23 884.00 110.70 835.49 76.55 780.43 C 47.71 733.95 26.05 682.28 13.62 629.10 C 8.28 606.99 4.96 584.54 2.35 562.00 C 1.29 549.11 0.33 536.42 0.53 523.46 L 0.00 522.94 L 0.00 500.55 L 0.55 500.55 C 0.25 473.52 3.76 446.58 8.36 420.09 C 9.62 413.40 10.59 406.50 12.61 399.99 C 14.41 390.23 17.12 380.53 19.92 371.01 C 20.63 366.84 22.69 363.16 23.34 359.01 C 24.97 354.14 26.72 348.87 28.33 344.01 C 30.48 339.53 31.47 334.44 33.66 329.88 C 64.18 250.17 115.09 178.51 180.00 123.05 C 213.65 94.30 250.22 70.34 289.99 50.96 C 321.46 35.79 354.18 23.55 388.08 15.34 C 391.27 14.21 394.67 13.49 398.00 12.91 C 419.46 8.00 442.20 4.31 464.08 2.34 C 476.58 0.91 488.94 0.46 501.54 0.51 L 502.05 0.00 Z" fill="#002768" />
<path d="M 523.45 0.00 L 1024.00 0.00 L 1024.00 501.06 L 1023.48 500.54 C 1023.39 491.61 1023.44 482.48 1022.50 473.61 C 1019.94 439.96 1014.17 406.50 1004.99 374.00 C 975.55 268.76 911.22 174.28 824.72 107.31 C 760.89 57.88 686.28 23.82 607.00 8.90 C 597.70 7.45 588.41 5.30 579.01 4.57 C 560.47 1.70 542.31 0.41 523.45 0.55 L 523.45 0.00 Z" fill="none" fill-opacity="0" />
<path d="M 244.46 205.47 C 250.97 204.65 257.46 204.94 264.00 204.89 C 432.67 204.89 601.33 204.89 770.00 204.89 C 773.19 204.87 776.37 205.11 779.53 205.50 C 783.90 207.13 787.92 207.84 791.99 210.02 C 806.63 217.22 816.84 231.91 818.87 248.00 C 819.37 257.64 819.00 267.35 819.11 277.00 C 819.11 440.67 819.12 604.33 819.11 768.00 C 819.16 771.72 819.00 775.29 818.57 778.99 C 816.70 785.02 815.36 790.55 811.74 795.87 C 803.03 810.46 785.94 819.70 769.00 819.11 C 597.67 819.11 426.33 819.11 255.00 819.11 C 251.64 819.16 248.34 818.93 245.01 818.57 C 239.04 816.73 233.40 815.32 228.13 811.75 C 217.49 805.35 209.52 794.48 206.51 782.46 C 204.51 776.66 204.95 771.02 204.89 765.00 C 204.89 595.33 204.88 425.67 204.89 256.00 C 204.64 247.59 206.31 238.72 210.38 231.31 C 216.28 219.83 226.80 211.14 238.99 207.10 C 240.86 206.77 242.72 206.21 244.46 205.47 Z" fill="#ffffff" />
<path d="M 246.46 213.48 C 255.23 212.53 264.18 213.19 273.00 212.99 C 439.00 213.00 605.00 212.99 771.00 213.00 C 792.14 213.12 811.04 231.70 811.00 253.00 C 811.02 361.00 811.00 469.00 811.01 577.00 C 811.32 581.99 806.88 586.02 802.00 585.82 C 608.67 585.81 415.33 585.82 222.00 585.82 C 217.13 586.04 212.68 581.97 212.99 577.00 C 213.00 469.33 212.99 361.67 212.99 254.00 C 212.71 245.47 215.94 236.85 220.80 229.93 C 227.05 221.53 236.24 215.62 246.46 213.48 Z" fill="#002768" />
<path d="M 391.00 281.83 C 425.99 281.71 461.02 281.93 496.00 281.71 C 541.36 281.71 586.60 281.86 632.00 281.80 C 635.79 281.36 638.95 284.25 638.97 288.00 C 638.99 305.66 639.00 323.34 638.97 341.00 C 638.99 344.22 636.33 347.23 633.00 347.13 C 605.35 347.25 577.65 347.14 550.00 347.19 L 548.44 347.44 C 548.07 349.22 548.30 351.15 548.23 353.00 C 548.24 405.33 548.23 457.67 548.23 510.00 C 548.22 511.64 548.32 513.40 547.97 515.00 C 547.11 517.49 544.70 519.33 542.00 519.19 C 524.34 519.22 506.66 519.24 489.00 519.18 C 485.74 519.38 482.60 516.28 482.89 513.00 C 482.84 458.36 482.89 403.65 482.86 349.00 L 482.58 347.42 C 481.15 347.03 479.48 347.22 478.00 347.18 C 450.00 347.18 422.00 347.18 394.00 347.17 C 392.37 347.15 390.60 347.25 389.01 346.84 C 386.70 345.93 384.98 343.50 385.03 341.00 C 385.00 323.34 385.01 305.66 385.03 288.00 C 384.96 284.86 387.72 281.65 391.00 281.83 Z" fill="#ffffff" />
<path d="M 0.00 522.94 L 0.53 523.46 C 0.33 536.42 1.29 549.11 2.35 562.00 C 4.96 584.54 8.28 606.99 13.62 629.10 C 26.05 682.28 47.71 733.95 76.55 780.43 C 110.70 835.49 155.23 884.00 207.25 922.70 C 247.37 952.61 291.94 976.68 339.01 993.75 C 343.60 994.91 347.34 997.04 351.93 998.29 C 387.52 1009.90 423.77 1017.71 461.00 1021.37 C 473.89 1022.75 486.52 1023.63 499.56 1023.45 L 499.55 1024.00 L 0.00 1024.00 L 0.00 522.94 Z" fill="none" fill-opacity="0" />
<path d="M 1023.45 523.44 L 1024.00 523.46 L 1024.00 1024.00 L 522.94 1024.00 L 523.46 1023.48 C 542.89 1023.59 560.89 1022.19 579.99 1019.35 C 663.87 1008.45 744.38 975.64 812.72 925.69 C 892.47 867.58 954.50 786.95 989.99 695.00 C 993.19 686.80 996.36 677.11 999.51 668.53 C 1002.66 657.81 1006.03 647.39 1008.49 636.45 C 1013.32 619.39 1016.05 601.48 1018.94 584.00 C 1021.75 563.29 1023.71 544.51 1023.45 523.44 Z" fill="none" fill-opacity="0" />
<path d="M 591.37 653.59 C 600.23 659.62 606.68 669.30 607.95 680.00 C 608.19 681.85 606.69 682.88 605.00 682.88 C 598.70 682.78 592.28 683.11 586.01 682.71 C 582.87 681.85 582.67 678.27 580.77 676.11 C 577.14 670.54 571.34 668.11 565.00 667.07 C 558.51 666.56 550.40 666.87 544.99 670.97 C 541.88 673.24 541.10 677.13 542.39 680.66 C 543.86 683.53 546.96 685.50 549.99 686.32 C 555.51 688.68 562.22 688.92 568.00 690.03 C 573.40 690.40 578.70 691.99 584.00 693.02 C 589.00 694.44 593.70 696.14 597.96 699.20 C 605.00 703.80 609.08 711.61 609.13 720.00 C 609.56 725.91 608.44 731.62 606.22 737.06 C 603.36 742.16 599.90 746.62 594.89 749.77 C 591.20 752.65 587.12 753.80 582.99 755.68 C 571.35 759.07 557.81 760.05 546.08 756.68 C 534.00 754.00 522.92 745.65 518.25 733.99 C 517.39 730.46 514.58 724.77 516.36 721.35 C 521.20 720.20 526.96 721.11 532.00 720.83 C 535.09 721.12 538.99 719.75 540.73 723.13 C 542.82 729.77 548.44 734.29 555.00 736.10 C 561.25 737.78 568.97 737.83 575.01 735.32 C 579.11 734.32 583.35 730.48 583.42 726.00 C 583.51 723.37 583.23 720.67 581.32 718.69 C 578.08 715.11 573.47 714.15 569.00 713.13 C 557.06 710.96 545.63 710.75 533.98 706.23 C 527.71 703.81 522.20 700.11 519.06 693.99 C 513.57 683.24 515.96 668.90 523.79 659.84 C 531.50 651.11 542.60 647.02 553.92 645.67 C 567.00 644.35 580.27 646.06 591.37 653.59 Z" fill="#002768" />
<path d="M 291.00 646.71 C 320.00 646.70 349.00 646.71 378.00 646.71 C 379.92 646.71 381.65 646.88 382.25 649.00 C 382.64 654.27 382.33 659.69 382.42 665.00 C 382.44 666.53 381.69 668.42 379.99 668.61 C 370.34 668.78 360.66 668.61 351.00 668.70 C 349.41 668.74 348.37 669.13 347.47 670.46 C 347.29 671.28 347.21 672.13 347.23 673.00 C 347.23 699.00 347.23 725.00 347.23 751.00 C 347.16 752.55 347.45 754.44 346.76 755.87 C 345.87 757.23 344.48 757.25 343.00 757.26 C 337.00 757.26 331.00 757.28 325.00 757.24 C 323.02 757.19 321.83 755.99 321.86 754.00 C 321.78 726.68 321.88 699.32 321.81 672.00 C 321.83 670.30 320.76 668.89 319.00 668.74 C 309.01 668.55 299.00 668.82 289.01 668.60 C 287.43 668.47 286.61 666.40 286.69 665.00 C 286.68 661.00 286.67 657.00 286.67 653.00 C 286.72 651.43 286.45 649.50 287.22 648.09 C 287.96 646.80 289.67 646.70 291.00 646.71 Z" fill="#002768" />
<path d="M 403.00 646.76 C 409.33 646.64 415.67 646.73 422.00 646.72 C 424.19 646.65 425.78 647.73 425.85 650.00 C 425.90 669.32 425.82 688.67 425.89 708.00 C 425.74 715.25 428.16 723.42 433.28 728.72 C 441.82 737.61 457.70 737.12 465.59 727.59 C 470.33 721.71 472.20 713.43 472.00 706.00 C 472.02 687.34 471.99 668.65 472.02 650.00 C 471.97 648.19 473.18 646.84 475.00 646.73 C 480.66 646.67 486.33 646.72 492.00 646.70 C 493.63 646.72 495.09 646.55 496.54 647.46 C 497.30 648.59 497.76 649.61 497.62 651.00 C 497.65 671.00 497.71 691.00 497.58 711.00 C 497.61 712.01 497.46 713.01 497.12 714.00 C 496.55 722.29 494.05 730.74 489.72 737.86 C 483.96 747.80 474.04 754.44 463.00 757.13 C 459.90 757.39 457.17 758.76 454.00 758.67 C 442.06 759.71 429.53 757.36 419.60 750.41 C 411.50 744.77 406.04 736.32 403.13 727.00 C 401.18 720.83 400.53 714.44 400.19 708.00 C 400.12 688.67 400.14 669.33 400.18 650.00 C 400.20 648.26 401.20 646.93 403.00 646.76 Z" fill="#002768" />
<path d="M 632.00 646.71 C 645.66 646.69 659.34 646.71 673.00 646.71 C 679.33 646.79 685.44 646.70 691.57 648.49 C 705.25 651.66 718.22 660.23 725.68 672.26 C 730.96 680.48 733.99 690.21 734.06 700.00 C 734.86 713.87 730.23 727.59 721.20 738.15 C 710.35 750.53 693.34 757.40 677.00 757.23 C 662.00 757.29 647.00 757.27 632.00 757.24 C 630.49 757.29 629.50 756.49 628.45 755.55 C 628.42 719.88 628.39 684.12 628.46 648.46 C 629.42 647.30 630.47 646.76 632.00 646.71 Z" fill="#002768" />
<path d="M 658.00 668.69 C 663.33 668.67 668.67 668.68 674.00 668.68 C 678.30 668.67 682.52 668.82 686.55 670.48 C 697.83 674.51 705.64 685.25 706.96 697.00 C 707.26 702.37 707.49 708.46 705.51 713.54 C 702.74 721.91 696.33 729.70 687.92 732.77 C 682.78 735.56 677.66 735.21 672.00 735.24 C 667.00 735.20 661.99 735.32 657.00 735.19 C 655.22 735.13 654.16 733.69 654.17 732.00 C 654.13 713.02 654.16 693.99 654.15 675.00 C 654.16 673.48 654.08 671.99 654.39 670.49 C 654.92 669.41 656.82 668.40 658.00 668.69 Z" fill="#ffffff" />
</svg>