<?xml version="1.0" encoding="UTF-8" standalone="no"?>
<!DOCTYPE svg PUBLIC "-//W3C//DTD SVG 1.1//EN" "http://www.w3.org/Graphics/SVG/1.1/DTD/svg11.dtd">
<svg xmlns="http://www.w3.org/2000/svg" version="1.1" viewBox="0 0 1024 1024" width="1024.0pt" height="1024.0pt">
<path d="M 0.00 0.00 L 500.88 0.00 L 500.12 0.60 C 491.40 0.45 482.70 0.66 474.00 1.31 C 468.98 1.39 464.30 2.44 459.02 2.44 C 450.86 3.89 442.14 4.44 434.00 5.87 C 355.01 17.68 279.02 48.55 214.00 95.06 C 174.53 123.27 139.20 157.01 109.21 195.14 C 62.13 254.84 29.00 324.93 12.29 398.99 C 10.04 411.25 6.89 423.62 5.66 436.01 C 2.30 457.11 0.33 478.10 0.55 499.55 L 0.00 499.55 L 0.00 0.00 Z" fill="none" fill-opacity="0" />
<path d="M 500.88 0.00 L 528.43 0.00 L 528.43 0.55 C 541.98 0.51 552.78 1.40 566.09 2.65 C 569.39 3.39 572.62 3.68 576.00 3.93 C 589.35 5.83 602.29 7.19 615.45 10.48 C 620.52 11.24 625.51 12.61 630.54 13.51 C 633.92 14.94 637.54 14.99 640.99 16.22 C 705.43 32.81 766.62 62.19 819.79 102.25 C 857.02 130.16 890.46 163.28 918.73 200.24 C 967.03 263.11 1000.17 337.19 1014.93 415.00 C 1019.88 443.02 1023.75 471.00 1023.49 499.54 L 1024.00 500.07 L 1024.00 523.46 L 1023.45 523.43 C 1023.61 533.83 1023.08 544.17 1022.49 554.54 C 1021.70 558.06 1021.81 561.93 1021.49 565.54 C 1020.16 571.03 1020.06 576.89 1019.49 582.54 C 1018.13 586.82 1018.10 591.09 1017.48 595.54 C 1016.46 598.32 1017.01 601.22 1015.68 603.91 C 1013.10 620.05 1009.46 635.28 1005.06 651.00 C 988.10 711.80 959.68 769.34 921.75 819.80 C 893.67 857.21 860.33 890.82 823.16 919.22 C 776.79 954.64 724.54 981.94 668.98 999.72 C 654.60 1004.17 639.66 1008.45 625.01 1011.72 C 618.36 1012.85 611.59 1014.50 605.01 1015.74 C 601.56 1016.08 598.33 1016.71 594.98 1017.57 C 589.85 1017.93 585.07 1018.96 580.02 1019.43 C 575.24 1020.51 570.30 1020.15 565.54 1021.49 C 558.03 1022.04 550.56 1022.65 543.07 1023.29 L 542.53 1024.00 L 498.55 1024.00 L 498.56 1023.45 C 485.28 1023.55 474.13 1022.90 461.00 1021.60 C 439.91 1019.20 417.72 1015.97 397.00 1011.13 C 353.42 1001.19 311.03 985.53 271.54 964.48 C 181.57 916.99 106.61 841.94 59.22 751.93 C 43.32 722.07 30.52 690.44 20.94 658.00 C 16.37 643.31 12.52 627.15 9.75 611.99 C 9.55 609.51 8.12 607.58 8.27 605.00 C 4.01 578.54 0.34 553.42 0.52 526.46 L 0.00 525.93 L 0.00 499.55 L 0.55 499.55 C 0.33 478.10 2.30 457.11 5.66 436.01 C 6.89 423.62 10.04 411.25 12.29 398.99 C 29.00 324.93 62.13 254.84 109.21 195.14 C 139.20 157.01 174.53 123.27 214.00 95.06 C 279.02 48.55 355.01 17.68 434.00 5.87 C 442.14 4.44 450.86 3.89 459.02 2.44 C 464.30 2.44 468.98 1.39 474.00 1.31 C 482.70 0.66 491.40 0.45 500.12 0.60 L 500.88 0.00 Z" fill="#2775ca" />
<path d="M 528.43 0.00 L 1024.00 0.00 L 1024.00 500.07 L 1023.49 499.54 C 1023.75 471.00 1019.88 443.02 1014.93 415.00 C 1000.17 337.19 967.03 263.11 918.73 200.24 C 890.46 163.28 857.02 130.16 819.79 102.25 C 766.62 62.19 705.43 32.81 640.99 16.22 C 637.54 14.99 633.92 14.94 630.54 13.51 C 625.51 12.61 620.52 11.24 615.45 10.48 C 602.29 7.19 589.35 5.83 576.00 3.93 C 572.62 3.68 569.39 3.39 566.09 2.65 C 552.78 1.40 541.98 0.51 528.43 0.55 L 528.43 0.00 Z" fill="none" fill-opacity="0" />
<path d="M 401.00 149.57 C 409.42 149.02 415.86 157.05 415.95 165.00 C 416.04 175.66 415.98 186.33 415.98 197.00 C 416.13 202.92 413.93 209.41 409.36 213.36 C 404.74 217.91 399.11 218.86 393.35 221.42 C 334.30 245.13 282.70 286.44 247.51 339.53 C 237.37 354.36 229.17 370.27 221.50 386.47 C 219.98 390.70 218.20 394.95 216.33 399.02 C 212.81 409.34 208.75 419.46 205.81 429.99 C 202.49 442.23 198.80 454.88 197.48 467.54 C 195.94 473.73 195.85 480.87 194.44 487.01 C 193.78 501.83 192.40 515.88 193.46 530.78 C 194.07 538.03 193.89 545.95 195.10 553.00 C 195.58 559.24 197.13 565.19 197.51 571.53 C 198.93 574.77 198.79 578.13 199.53 581.54 C 204.31 603.67 211.22 625.84 220.47 646.56 C 239.23 689.01 267.21 727.27 302.21 757.77 C 331.47 783.37 365.60 803.45 402.17 816.66 C 404.39 817.50 406.18 819.48 407.92 821.06 C 412.25 825.53 416.49 831.46 415.99 838.00 C 415.97 848.33 416.03 858.67 415.96 869.00 C 416.15 872.35 414.02 874.05 413.00 876.99 C 411.13 881.79 406.16 885.14 401.00 884.87 C 397.99 884.89 394.83 883.14 391.98 882.28 C 330.35 862.11 274.19 826.53 230.02 779.00 C 178.95 724.18 144.17 653.86 132.33 579.91 C 130.87 575.40 131.22 570.54 130.10 566.00 C 129.16 554.94 127.57 545.39 127.58 534.00 C 127.58 532.28 127.71 530.65 127.12 529.00 C 127.17 521.83 126.49 513.99 127.58 507.01 C 127.39 498.13 127.93 489.30 128.51 480.46 C 129.60 475.78 129.52 470.62 130.55 465.99 C 130.74 460.46 132.40 455.11 132.88 450.00 C 133.95 445.87 134.05 441.61 135.48 437.54 C 135.74 433.86 137.03 430.56 137.73 427.01 C 155.77 350.84 198.10 280.57 257.00 228.97 C 296.61 193.97 343.57 167.73 393.92 151.71 C 396.22 150.32 398.22 149.44 401.00 149.57 Z" fill="#ffffff" />
<path d="M 631.00 152.02 C 695.53 173.36 754.25 211.80 799.31 262.70 C 855.00 325.08 889.21 405.87 895.64 489.09 C 896.72 496.52 896.00 503.85 896.93 511.00 C 896.85 517.27 897.43 524.01 896.42 529.99 C 896.63 538.36 896.06 546.66 895.58 555.01 C 894.09 564.88 893.32 574.40 891.51 584.44 C 889.66 592.95 888.39 602.59 886.01 610.99 C 868.48 683.40 829.42 750.10 774.80 800.79 C 735.89 837.04 689.33 864.89 639.00 882.08 C 635.71 883.27 632.01 884.15 628.85 885.74 C 626.77 887.34 623.51 887.36 621.00 887.36 C 613.53 886.14 608.23 879.44 608.05 872.00 C 607.99 860.67 607.95 849.33 608.08 838.00 C 608.33 829.34 613.92 821.81 621.97 818.76 C 646.81 809.54 670.50 797.36 692.34 782.37 C 741.81 748.61 781.30 700.63 804.42 645.34 C 809.52 633.17 813.94 620.59 817.87 608.01 C 818.91 605.22 818.91 602.04 820.50 599.54 C 820.67 597.23 821.73 595.31 821.92 593.00 C 823.16 590.19 822.81 586.86 823.97 584.00 C 825.86 577.96 825.78 571.57 827.48 565.55 C 827.83 563.43 827.74 561.15 828.35 559.09 C 829.14 553.79 829.02 548.26 829.95 543.00 C 830.89 530.78 831.19 518.29 830.59 506.00 C 830.51 503.94 830.80 502.00 830.18 500.00 C 829.93 492.29 829.26 484.60 828.02 477.00 C 826.72 467.35 825.43 458.45 823.02 449.00 C 807.51 380.33 768.91 317.25 714.28 272.70 C 686.37 249.61 654.45 231.92 620.45 219.53 C 614.22 214.90 608.91 207.91 608.07 200.00 C 607.93 189.34 608.04 178.66 608.01 168.00 C 608.04 166.18 607.97 164.21 608.47 162.45 C 610.91 159.07 611.20 155.37 614.68 152.68 C 619.58 148.47 625.58 149.59 631.00 152.02 Z" fill="#ffffff" />
<path d="M 491.45 260.48 C 500.58 259.82 509.84 260.35 519.00 260.18 C 523.26 260.37 527.16 259.56 530.91 261.35 C 537.55 263.49 543.41 268.69 543.94 276.00 C 544.06 292.66 543.96 309.34 543.99 326.00 C 543.97 326.85 544.11 327.71 544.42 328.57 C 570.43 330.95 595.24 342.76 612.95 362.04 C 627.04 377.06 636.86 396.67 639.98 417.00 C 640.67 425.22 634.38 432.84 626.00 432.98 C 614.34 433.08 602.66 433.02 591.00 433.01 C 583.93 433.08 577.45 428.08 575.61 421.26 C 571.30 408.65 564.47 397.35 553.47 389.53 C 543.70 382.53 531.75 379.60 520.00 378.22 C 510.32 377.53 500.67 377.49 490.99 378.33 C 481.08 379.63 470.52 382.44 461.99 387.85 C 453.40 393.17 446.85 401.28 443.88 410.99 C 441.26 418.11 441.57 426.52 441.94 434.00 C 442.50 445.86 448.14 457.11 458.00 463.91 C 468.20 471.12 480.99 474.92 492.99 477.78 C 499.29 478.85 505.67 480.60 512.00 481.18 C 541.98 485.01 573.55 489.46 601.20 502.67 C 615.35 509.60 627.89 518.89 636.88 532.00 C 644.54 543.22 649.19 556.61 651.09 570.00 C 652.16 573.33 651.60 577.09 652.49 580.44 C 652.72 586.65 653.05 592.78 652.69 599.00 C 652.64 605.85 650.65 613.21 649.63 619.98 C 645.84 633.44 640.36 645.73 631.98 657.00 C 615.76 678.90 592.22 693.58 566.35 701.43 C 559.58 703.16 553.19 704.83 546.31 706.31 C 546.13 707.19 546.05 708.08 546.09 709.00 C 546.08 725.00 546.12 741.00 546.06 757.00 C 545.03 765.22 539.03 774.07 530.00 774.26 C 519.34 774.45 508.66 774.32 498.00 774.33 C 491.41 773.80 483.37 769.55 481.21 762.93 C 479.94 761.14 480.10 759.11 480.01 757.00 C 480.00 741.67 480.01 726.33 480.01 711.00 C 479.94 709.46 480.19 707.76 479.75 706.27 C 474.54 705.13 469.18 704.28 464.01 702.99 C 439.62 697.61 415.21 686.53 397.70 668.30 C 382.44 653.00 372.49 631.96 368.34 610.91 C 367.42 606.33 366.11 601.51 367.65 596.90 C 369.42 591.12 374.90 586.80 381.00 586.80 C 392.99 586.63 405.00 586.74 417.00 586.74 C 422.57 586.52 428.03 589.08 430.78 594.06 C 433.31 597.76 432.96 601.57 434.48 605.57 C 437.94 618.74 444.53 631.12 455.56 639.44 C 465.67 647.25 477.54 651.06 490.00 653.12 C 508.58 655.88 529.37 656.34 547.00 649.01 C 559.48 644.14 570.40 635.83 577.32 624.24 C 581.01 617.83 583.80 610.44 584.17 603.00 C 584.86 593.00 584.43 583.15 579.94 574.01 C 575.77 565.62 568.71 559.76 560.54 555.47 C 551.07 550.62 540.35 547.26 530.08 544.69 C 519.20 542.41 509.14 539.86 498.10 538.65 C 489.44 537.52 479.57 535.84 470.92 534.31 C 468.50 533.20 465.92 533.28 463.41 532.53 C 452.54 529.96 441.92 526.81 431.62 522.44 C 411.43 514.03 393.75 501.00 383.73 481.11 C 374.35 462.48 372.68 442.55 373.83 422.00 C 375.71 396.23 388.72 372.01 408.53 355.52 C 420.61 345.07 435.44 337.44 450.59 332.54 C 454.60 331.30 458.36 329.97 462.53 329.48 C 466.25 327.97 470.10 327.89 474.00 327.00 C 475.37 326.72 477.83 326.98 477.90 325.00 C 477.94 309.34 477.88 293.66 477.92 278.00 C 478.84 270.23 483.54 262.67 491.45 260.48 Z" fill="#ffffff" />
<path d="M 1023.45 523.43 L 1024.00 523.46 L 1024.00 1024.00 L 542.53 1024.00 L 543.07 1023.29 C 550.56 1022.65 558.03 1022.04 565.54 1021.49 C 570.30 1020.15 575.24 1020.51 580.02 1019.43 C 585.07 1018.96 589.85 1017.93 594.98 1017.57 C 598.33 1016.71 601.56 1016.08 605.01 1015.74 C 611.59 1014.50 618.36 1012.85 625.01 1011.72 C 639.66 1008.45 654.60 1004.17 668.98 999.72 C 724.54 981.94 776.79 954.64 823.16 919.22 C 860.33 890.82 893.67 857.21 921.75 819.80 C 959.68 769.34 988.10 711.80 1005.06 651.00 C 1009.46 635.28 1013.10 620.05 1015.68 603.91 C 1017.01 601.22 1016.46 598.32 1017.48 595.54 C 1018.10 591.09 1018.13 586.82 1019.49 582.54 C 1020.06 576.89 1020.16 571.03 1021.49 565.54 C 1021.81 561.93 1021.70 558.06 1022.49 554.54 C 1023.08 544.17 1023.61 533.83 1023.45 523.43 Z" fill="none" fill-opacity="0" />
<path d="M 0.00 525.93 L 0.52 526.46 C 0.34 553.42 4.01 578.54 8.27 605.00 C 8.12 607.58 9.55 609.51 9.75 611.99 C 12.52 627.15 16.37 643.31 20.94 658.00 C 30.52 690.44 43.32 722.07 59.22 751.93 C 106.61 841.94 181.57 916.99 271.54 964.48 C 311.03 985.53 353.42 1001.19 397.00 1011.13 C 417.72 1015.97 439.91 1019.20 461.00 1021.60 C 474.13 1022.90 485.28 1023.55 498.56 1023.45 L 498.55 1024.00 L 0.00 1024.00 L 0.00 525.93 Z" fill="none" fill-opacity="0" />
</svg>